<svg xmlns="http://www.w3.org/2000/svg" viewBox="0 0 32 32" fill="none">
  <rect width="32" height="32" rx="7" fill="#0891b2"/>
  <path d="M15 28 C14.2 28 13.5 27.4 13.5 26.5 L12.8 16.5 C12.8 15.8 13.3 15.2 14 15.2 L16 15.2 C16.7 15.2 17.2 15.8 17.2 16.5 L16.5 26.5 C16.5 27.4 15.8 28 15 28 Z" fill="#8B5E34"/>
  <path d="M15 15.5 C11 14 6.5 9.5 5 4.5 C8 7.5 11.5 12 15 15.5 Z" fill="#2D6A4F"/>
  <path d="M15 15.5 C9.5 13.5 5.5 8.5 5 2.5 C7.5 6.5 11 11.5 15 15.5 Z" fill="#40916C"/>
  <path d="M15 15.5 C20.5 13.5 24.5 8.5 25 2.5 C22.5 6.5 19 11.5 15 15.5 Z" fill="#2D6A4F"/>
  <path d="M15 15.5 C21 14 25.5 9.5 27 4.5 C24 7.5 20.5 12 15 15.5 Z" fill="#1B4332"/>
  <path d="M15 15.5 C17.5 11 18.5 7 18 2.5 C17 6 16 10 15 15.5 Z" fill="#40916C"/>
  <path d="M15 15.5 C12.5 11 11.5 7 12 2.5 C13 6 14 10 15 15.5 Z" fill="#1B4332"/>
  <circle cx="14" cy="14" r="1.6" fill="#5C4033"/>
  <circle cx="16" cy="13.5" r="1.2" fill="#5C4033"/>
</svg>
